<svg id="visual" viewBox="0 0 900 600" width="900" height="600" xmlns="http://www.w3.org/2000/svg" xmlns:xlink="http://www.w3.org/1999/xlink" version="1.1"><rect x="0" y="0" width="900" height="600" fill="#001220"></rect><path d="M0 346L10 348.2C20 350.3 40 354.7 60 364C80 373.3 100 387.7 120 395.2C140 402.7 160 403.3 180 399.5C200 395.7 220 387.3 240 390.7C260 394 280 409 300 406C320 403 340 382 360 382.3C380 382.7 400 404.3 420 405.7C440 407 460 388 480 376.2C500 364.3 520 359.7 540 364C560 368.3 580 381.7 600 386.7C620 391.7 640 388.3 660 390.8C680 393.3 700 401.7 720 405.7C740 409.7 760 409.3 780 411.8C800 414.3 820 419.7 840 410.8C860 402 880 379 890 367.5L900 356L900 601L890 601C880 601 860 601 840 601C820 601 800 601 780 601C760 601 740 601 720 601C700 601 680 601 660 601C640 601 620 601 600 601C580 601 560 601 540 601C520 601 500 601 480 601C460 601 440 601 420 601C400 601 380 601 360 601C340 601 320 601 300 601C280 601 260 601 240 601C220 601 200 601 180 601C160 601 140 601 120 601C100 601 80 601 60 601C40 601 20 601 10 601L0 601Z" fill="#fa7268"></path><path d="M0 446L10 445.3C20 444.7 40 443.3 60 437.7C80 432 100 422 120 421.7C140 421.3 160 430.7 180 426.8C200 423 220 406 240 405.7C260 405.3 280 421.7 300 433C320 444.3 340 450.7 360 455.7C380 460.7 400 464.3 420 462.3C440 460.3 460 452.7 480 448.5C500 444.3 520 443.7 540 443C560 442.3 580 441.7 600 442.7C620 443.7 640 446.3 660 441.8C680 437.3 700 425.7 720 425.5C740 425.3 760 436.7 780 440C800 443.3 820 438.7 840 435C860 431.3 880 428.7 890 427.3L900 426L900 601L890 601C880 601 860 601 840 601C820 601 800 601 780 601C760 601 740 601 720 601C700 601 680 601 660 601C640 601 620 601 600 601C580 601 560 601 540 601C520 601 500 601 480 601C460 601 440 601 420 601C400 601 380 601 360 601C340 601 320 601 300 601C280 601 260 601 240 601C220 601 200 601 180 601C160 601 140 601 120 601C100 601 80 601 60 601C40 601 20 601 10 601L0 601Z" fill="#ef5f67"></path><path d="M0 445L10 446.2C20 447.3 40 449.7 60 453.5C80 457.3 100 462.7 120 462.8C140 463 160 458 180 462.5C200 467 220 481 240 486C260 491 280 487 300 486.3C320 485.7 340 488.3 360 484.7C380 481 400 471 420 462.5C440 454 460 447 480 453.7C500 460.3 520 480.7 540 480.3C560 480 580 459 600 457.8C620 456.7 640 475.3 660 481.5C680 487.7 700 481.3 720 474C740 466.7 760 458.3 780 453.7C800 449 820 448 840 456.7C860 465.3 880 483.7 890 492.8L900 502L900 601L890 601C880 601 860 601 840 601C820 601 800 601 780 601C760 601 740 601 720 601C700 601 680 601 660 601C640 601 620 601 600 601C580 601 560 601 540 601C520 601 500 601 480 601C460 601 440 601 420 601C400 601 380 601 360 601C340 601 320 601 300 601C280 601 260 601 240 601C220 601 200 601 180 601C160 601 140 601 120 601C100 601 80 601 60 601C40 601 20 601 10 601L0 601Z" fill="#e34c67"></path><path d="M0 523L10 518.8C20 514.7 40 506.3 60 499.5C80 492.7 100 487.3 120 493C140 498.7 160 515.3 180 520.5C200 525.7 220 519.3 240 515.2C260 511 280 509 300 506.7C320 504.3 340 501.7 360 499.7C380 497.7 400 496.3 420 497.8C440 499.3 460 503.7 480 510C500 516.3 520 524.7 540 521.8C560 519 580 505 600 497.8C620 490.7 640 490.3 660 495.3C680 500.3 700 510.7 720 518.8C740 527 760 533 780 531.7C800 530.3 820 521.7 840 516.8C860 512 880 511 890 510.5L900 510L900 601L890 601C880 601 860 601 840 601C820 601 800 601 780 601C760 601 740 601 720 601C700 601 680 601 660 601C640 601 620 601 600 601C580 601 560 601 540 601C520 601 500 601 480 601C460 601 440 601 420 601C400 601 380 601 360 601C340 601 320 601 300 601C280 601 260 601 240 601C220 601 200 601 180 601C160 601 140 601 120 601C100 601 80 601 60 601C40 601 20 601 10 601L0 601Z" fill="#d53867"></path><path d="M0 556L10 557.5C20 559 40 562 60 562.2C80 562.3 100 559.7 120 554.2C140 548.7 160 540.3 180 540.2C200 540 220 548 240 549.3C260 550.7 280 545.3 300 547.7C320 550 340 560 360 559.7C380 559.3 400 548.7 420 547.3C440 546 460 554 480 560C500 566 520 570 540 569.7C560 569.3 580 564.7 600 560.5C620 556.3 640 552.7 660 548.7C680 544.7 700 540.3 720 540C740 539.7 760 543.3 780 544.5C800 545.7 820 544.3 840 545.8C860 547.3 880 551.7 890 553.8L900 556L900 601L890 601C880 601 860 601 840 601C820 601 800 601 780 601C760 601 740 601 720 601C700 601 680 601 660 601C640 601 620 601 600 601C580 601 560 601 540 601C520 601 500 601 480 601C460 601 440 601 420 601C400 601 380 601 360 601C340 601 320 601 300 601C280 601 260 601 240 601C220 601 200 601 180 601C160 601 140 601 120 601C100 601 80 601 60 601C40 601 20 601 10 601L0 601Z" fill="#c62368"></path></svg>